<?xml version="1.0" standalone="no"?>
<!DOCTYPE svg PUBLIC "-//W3C//DTD SVG 20010904//EN"
 "http://www.w3.org/TR/2001/REC-SVG-20010904/DTD/svg10.dtd">
<svg version="1.0" xmlns="http://www.w3.org/2000/svg"
 width="640.000000pt" height="1280.000000pt" viewBox="0 0 640.000000 1280.000000"
 preserveAspectRatio="xMidYMid meet">
<metadata>
Created by potrace 1.15, written by Peter Selinger 2001-2017
</metadata>
<g transform="translate(0.000000,1280.000000) scale(0.100000,-0.100000)"
fill="#000000" stroke="none">
<path d="M2473 12781 c-112 -70 -60 -251 72 -251 76 0 127 50 127 125 0 108
-114 179 -199 126z m108 -16 c16 -9 34 -27 39 -41 21 -54 -20 -129 -75 -140
-79 -14 -122 24 -111 100 13 84 75 118 147 81z"/>
<path d="M3125 12556 c-43 -19 -92 -78 -105 -128 -49 -178 153 -322 287 -205
69 61 91 153 54 232 -45 97 -146 140 -236 101z m177 -85 c63 -67 63 -133 1
-202 -71 -79 -130 -89 -191 -34 -71 64 -74 147 -9 222 66 75 137 80 199 14z"/>
<path d="M2515 12205 c-28 -27 -31 -46 -13 -78 29 -54 93 -64 128 -20 26 33
20 68 -16 101 -33 29 -69 28 -99 -3z m97 -12 c25 -22 24 -79 -1 -93 -29 -15
-49 -12 -71 10 -22 22 -27 69 -8 88 17 17 58 15 80 -5z"/>
<path d="M3560 12112 c-106 -47 -120 -181 -24 -227 42 -20 72 -19 113 3 63 34
87 111 55 173 -23 45 -98 71 -144 51z m110 -30 c16 -13 24 -32 27 -69 5 -45 2
-55 -20 -77 -35 -35 -89 -35 -122 -1 -20 19 -25 34 -25 74 0 42 4 53 26 70 33
26 84 27 114 3z"/>
<path d="M2293 11961 c-40 -25 -53 -49 -53 -98 0 -143 196 -181 240 -47 34
103 -95 203 -187 145z m137 -31 c42 -23 46 -114 7 -157 -36 -40 -119 -25 -138
24 -33 87 54 174 131 133z"/>
<path d="M3004 11940 c-95 -38 -80 -193 22 -229 50 -18 88 -9 125 29 24 24 29
37 29 78 0 94 -90 157 -176 122z m103 -36 c22 -22 25 -32 20 -70 -6 -54 -28
-81 -72 -90 -33 -6 -73 8 -87 30 -16 24 -8 103 13 130 29 36 89 37 126 0z"/>
<path d="M2411 11594 c-28 -36 -26 -60 8 -95 36 -36 73 -37 106 -4 28 27 31
46 13 78 -28 54 -93 64 -127 21z m89 -4 c22 -22 27 -69 8 -88 -20 -20 -76 -15
-88 7 -37 70 27 134 80 81z"/>
<path d="M3644 11586 c-66 -29 -99 -107 -70 -168 42 -87 164 -90 216 -5 39 63
16 147 -45 173 -42 17 -61 17 -101 0z m66 -39 c49 -25 60 -123 18 -159 -22
-20 -79 -24 -108 -8 -25 13 -43 73 -35 111 14 62 67 86 125 56z"/>
<path d="M3243 11520 c-74 -30 -42 -140 40 -140 76 0 95 100 26 135 -32 17
-35 17 -66 5z m71 -32 c45 -64 -27 -135 -79 -78 -22 24 -24 78 -4 91 26 16 67
10 83 -13z"/>
<path d="M2755 11441 c-17 -10 -43 -33 -58 -50 -114 -136 14 -356 182 -311
124 33 180 190 107 300 -49 74 -162 104 -231 61z m164 -26 c16 -14 37 -46 47
-71 23 -61 8 -114 -51 -170 -67 -65 -123 -66 -185 -4 -62 62 -64 126 -8 194
65 79 140 98 197 51z"/>
<path d="M3485 11211 c-77 -32 -61 -141 21 -141 42 0 84 37 84 73 0 50 -59 87
-105 68z m63 -23 c19 -19 14 -66 -8 -88 -22 -22 -42 -25 -71 -10 -24 13 -26
66 -2 92 18 20 63 24 81 6z"/>
<path d="M3139 11117 c-21 -14 -41 -41 -53 -70 -18 -44 -19 -51 -6 -90 39
-111 188 -115 242 -7 24 47 22 90 -5 131 -42 62 -116 78 -178 36z m149 -22
c11 -14 23 -43 27 -65 13 -77 -36 -123 -111 -104 -48 12 -76 50 -78 104 -1 34
4 46 27 66 40 34 108 34 135 -1z"/>
<path d="M2555 11065 c-5 -2 -22 -6 -37 -9 -35 -8 -94 -59 -115 -100 -26 -49
-21 -135 9 -187 74 -125 259 -117 319 15 43 95 5 217 -81 261 -27 13 -79 24
-95 20z m31 -55 c26 0 93 -71 110 -116 14 -37 15 -51 5 -84 -15 -52 -54 -96
-96 -110 -51 -17 -117 17 -156 78 -43 68 -46 103 -15 156 26 45 97 91 124 81
8 -3 20 -5 28 -5z"/>
<path d="M3182 10787 c-66 -71 44 -169 113 -101 8 9 15 30 15 48 0 67 -83 101
-128 53z m98 -9 c22 -24 26 -68 8 -86 -7 -7 -27 -12 -45 -12 -29 0 -36 5 -47
31 -16 39 -10 68 18 79 33 14 44 12 66 -12z"/>
<path d="M3523 10717 c-32 -30 -36 -40 -36 -81 0 -117 137 -177 215 -94 54 58
33 154 -42 193 -49 26 -96 19 -137 -18z m167 -27 c25 -25 27 -105 5 -137 -20
-29 -75 -39 -112 -21 -50 23 -57 114 -13 158 27 27 93 27 120 0z"/>
<path d="M2835 10597 c-49 -23 -92 -80 -105 -140 l-13 -54 -111 -7 c-361 -23
-652 -129 -716 -261 -28 -58 -21 -91 36 -154 47 -52 150 -112 261 -150 72 -25
267 -71 304 -71 21 0 29 -9 48 -55 24 -58 75 -111 117 -121 40 -10 110 2 141
24 22 16 78 101 78 119 0 0 74 6 165 12 412 29 797 120 1224 290 43 18 80 30
83 28 2 -3 -17 -74 -42 -158 -153 -510 -267 -1087 -525 -2648 -242 -1460 -326
-1886 -437 -2226 -61 -188 -139 -315 -192 -315 -80 0 -173 173 -276 515 -97
320 -212 843 -415 1880 -254 1302 -356 1769 -469 2160 -58 201 -143 445 -156
445 -2 0 3 -19 11 -42 64 -181 157 -657 349 -1783 169 -988 227 -1313 311
-1740 192 -977 344 -1480 491 -1634 42 -43 42 -43 100 -39 113 8 199 98 308
323 240 494 453 1520 689 3310 14 105 59 456 101 780 81 632 125 952 150 1080
23 122 25 118 -37 94 -301 -119 -816 -199 -1278 -199 l-145 0 -25 52 c-14 28
-42 65 -63 82 -33 27 -47 31 -96 31 -48 0 -64 -5 -95 -28 -20 -16 -47 -49 -59
-73 l-21 -45 -56 7 c-94 11 -255 43 -312 63 -125 43 -168 77 -168 133 0 45 48
104 114 142 85 49 256 90 421 101 50 3 118 8 152 10 61 5 63 5 78 -25 18 -35
76 -75 122 -85 52 -10 113 12 159 59 34 36 45 42 75 39 19 -1 117 -10 219 -18
226 -20 866 -83 900 -90 22 -4 22 -3 5 5 -82 38 -839 157 -1095 172 l-45 3 -6
46 c-15 102 -74 161 -167 166 -34 2 -69 -2 -87 -10z m152 -42 c44 -38 73 -89
73 -129 l0 -27 -142 3 -143 3 -3 34 c-7 76 58 151 132 151 34 0 50 -7 83 -35z
m-13 -225 c48 0 49 0 31 -20 -9 -10 -33 -24 -52 -31 -29 -9 -40 -8 -80 13 -69
34 -70 53 -2 45 30 -4 76 -7 103 -7z m-196 -352 c25 -23 68 -106 59 -115 -10
-9 -267 10 -267 20 0 21 44 79 79 103 43 30 90 27 129 -8z m1 -247 l34 -6 -29
-34 c-65 -77 -151 -71 -204 14 -11 18 -20 35 -20 38 0 7 170 -2 219 -12z"/>
<path d="M3290 10530 c-30 -30 -27 -83 6 -109 35 -28 69 -26 99 4 39 38 30 86
-22 113 -32 17 -60 15 -83 -8z m95 -33 c16 -39 8 -66 -23 -78 -61 -23 -111 78
-54 107 34 17 62 6 77 -29z"/>
<path d="M2492 10217 c-45 -48 -16 -120 48 -120 63 0 100 70 64 121 -21 31
-83 31 -112 -1z m102 -3 c19 -18 20 -37 5 -67 -23 -42 -64 -50 -94 -17 -47 52
40 134 89 84z"/>
<path d="M3292 10177 c-56 -59 13 -141 93 -111 22 9 46 59 38 81 -20 57 -91
73 -131 30z m99 -18 c33 -33 4 -89 -48 -89 -28 0 -63 33 -63 59 0 49 72 69
111 30z"/>
<path d="M3024 10180 c-57 -23 -85 -100 -57 -157 47 -97 173 -110 218 -23 54
104 -53 224 -161 180z m80 -22 c51 -22 52 -128 3 -163 -25 -17 -70 -20 -97 -5
-29 15 -43 71 -30 119 6 22 18 45 28 50 23 14 66 13 96 -1z"/>
<path d="M3588 10164 c-63 -33 -79 -135 -30 -184 85 -84 232 -17 219 100 -7
63 -49 100 -115 100 -26 -1 -59 -7 -74 -16z m82 -19 c35 -18 50 -43 50 -82 0
-38 -34 -91 -63 -98 -35 -9 -95 19 -107 50 -14 37 4 99 37 124 31 25 45 26 83
6z"/>
<path d="M3296 9750 c-77 -24 -117 -111 -81 -180 60 -116 249 -48 232 82 -6
46 -29 75 -74 94 -36 16 -37 16 -77 4z m87 -21 c55 -25 64 -138 13 -171 -25
-17 -87 -8 -111 17 -42 41 -31 135 18 155 30 12 52 12 80 -1z"/>
<path d="M2404 9548 c-98 -25 -111 -163 -21 -218 39 -24 104 -26 135 -4 112
78 21 258 -114 222z m89 -40 c27 -31 23 -103 -8 -133 -24 -25 -86 -34 -111
-17 -32 21 -44 90 -23 136 22 48 106 56 142 14z"/>
<path d="M3092 9533 c-15 -6 -42 -56 -42 -78 0 -25 46 -65 75 -65 32 0 85 50
85 80 0 46 -68 83 -118 63z m66 -19 c50 -34 14 -108 -50 -102 -30 3 -33 6 -36
40 -2 27 3 43 17 57 25 25 39 26 69 5z"/>
<path d="M3475 9466 c-71 -32 -117 -115 -117 -211 0 -205 202 -304 315 -153
37 49 50 102 44 175 -11 145 -131 238 -242 189z m151 -78 c66 -58 82 -142 43
-221 -54 -108 -134 -145 -199 -91 -73 62 -89 155 -42 245 52 100 130 126 198
67z"/>
<path d="M2899 9387 c-41 -28 -59 -60 -59 -110 0 -31 7 -46 34 -73 30 -30 40
-34 86 -34 47 0 56 4 91 39 31 31 39 46 39 75 0 103 -106 160 -191 103z m147
-22 c28 -18 34 -54 18 -102 -26 -74 -87 -92 -141 -41 -38 36 -24 128 24 158
21 12 68 5 99 -15z"/>
<path d="M2621 9374 c-41 -53 -13 -118 50 -116 41 1 69 31 69 73 0 65 -80 93
-119 43z m87 0 c44 -30 12 -114 -37 -97 -49 18 -65 61 -34 95 20 22 42 23 71
2z"/>
<path d="M2653 9090 c-40 -24 -53 -48 -53 -97 0 -51 32 -101 77 -120 72 -30
142 4 164 78 10 31 9 43 -7 75 -37 75 -117 104 -181 64z m137 -30 c45 -24 46
-146 0 -170 -24 -13 -76 -13 -100 0 -45 24 -43 133 3 165 25 17 70 20 97 5z"/>
<path d="M2982 9029 c-125 -62 -137 -259 -22 -336 142 -93 317 37 279 207 -27
121 -149 182 -257 129z m116 -43 c55 -29 102 -101 102 -158 0 -71 -70 -148
-133 -148 -70 0 -157 96 -157 173 0 100 107 175 188 133z"/>
<path d="M3312 8897 c-31 -33 -29 -80 5 -107 69 -54 164 49 103 110 -28 28
-81 26 -108 -3z m89 -8 c11 -11 18 -27 15 -36 -3 -8 -6 -18 -6 -23 0 -33 -73
-53 -98 -28 -19 19 -14 66 8 88 26 26 55 25 81 -1z"/>
<path d="M2605 8828 c-52 -28 -61 -84 -19 -117 15 -12 37 -21 49 -21 25 0 75
35 75 53 0 6 -9 1 -20 -11 -51 -54 -143 12 -97 70 21 28 68 27 97 -2 20 -20
27 -16 12 6 -9 14 -47 34 -64 34 -7 0 -22 -6 -33 -12z"/>
<path d="M2731 8702 c-33 -26 -31 -79 3 -109 35 -30 71 -29 101 2 28 27 31 46
13 78 -25 48 -78 61 -117 29z m105 -37 c14 -35 6 -75 -16 -75 -4 0 -15 -3 -24
-6 -21 -8 -66 39 -66 69 0 32 18 47 58 47 28 0 35 -5 48 -35z"/>
<path d="M3265 8698 c-66 -36 -96 -103 -72 -160 29 -68 92 -93 160 -65 67 28
100 129 61 185 -31 45 -104 65 -149 40z m81 -52 c24 -20 28 -31 28 -75 0 -61
-15 -80 -70 -88 -30 -4 -45 0 -65 16 -45 35 -46 125 -2 159 27 20 79 14 109
-12z"/>
<path d="M2946 8630 c-68 -21 -108 -97 -86 -164 31 -94 166 -102 220 -13 41
66 15 143 -56 173 -37 16 -38 16 -78 4z m87 -21 c31 -14 47 -48 47 -99 0 -53
-27 -80 -79 -80 -50 0 -80 25 -88 72 -8 52 3 85 35 102 33 18 53 19 85 5z"/>
<path d="M2555 8528 c-32 -17 -45 -39 -45 -78 0 -44 20 -73 59 -90 59 -24 121
15 121 78 0 44 -14 68 -50 87 -34 18 -57 19 -85 3z m79 -24 c23 -22 20 -80 -4
-104 -60 -60 -144 27 -94 98 18 26 74 30 98 6z"/>
<path d="M3333 8372 c-37 -6 -73 -58 -73 -104 0 -30 7 -46 29 -69 68 -68 175
-3 157 94 -10 52 -61 88 -113 79z m71 -38 c50 -51 23 -134 -43 -134 -20 0 -37
9 -55 31 -31 37 -33 67 -5 103 27 34 68 34 103 0z"/>
<path d="M2873 8298 c-25 -27 -29 -44 -20 -79 6 -25 42 -49 73 -49 24 0 74 56
74 82 0 59 -87 90 -127 46z m102 -12 c12 -18 13 -29 5 -52 -13 -34 -26 -44
-60 -44 -33 0 -50 17 -50 50 0 60 75 93 105 46z"/>
<path d="M2690 8208 c-28 -30 -25 -65 9 -99 35 -34 59 -36 95 -8 34 27 36 79
4 109 -29 27 -81 26 -108 -2z m90 -10 c28 -31 26 -75 -4 -89 -40 -18 -73 -4
-86 37 -10 30 -9 38 6 55 23 25 58 24 84 -3z"/>
<path d="M3020 8102 c-96 -48 -107 -189 -18 -238 34 -20 98 -17 135 6 88 53
86 193 -3 235 -42 20 -71 19 -114 -3z m103 -72 c38 -42 39 -109 2 -139 -39
-30 -81 -36 -111 -16 -56 37 -69 140 -22 179 34 27 95 16 131 -24z"/>
<path d="M3381 8054 c-26 -33 -27 -64 -1 -91 42 -46 103 -41 125 9 15 36 11
53 -18 86 -29 32 -79 30 -106 -4z m99 -4 c46 -46 6 -123 -52 -101 -44 17 -55
95 -15 111 34 13 45 12 67 -10z"/>
<path d="M2595 7995 c-41 -40 -29 -106 22 -126 61 -23 118 40 93 101 -23 55
-75 66 -115 25z m94 -20 c41 -53 -19 -127 -74 -91 -31 20 -33 63 -5 94 27 29
54 28 79 -3z"/>
<path d="M3375 7781 c-52 -32 -68 -58 -73 -116 -8 -96 55 -162 145 -152 139
15 166 219 37 273 -45 19 -73 18 -109 -5z m110 -33 c38 -17 69 -72 61 -109 -9
-44 -40 -84 -82 -104 -30 -14 -40 -15 -66 -4 -36 15 -68 63 -68 103 0 55 62
124 112 126 9 0 29 -5 43 -12z"/>
<path d="M2910 7740 c-46 -46 -9 -130 56 -130 33 0 74 35 74 63 0 69 -84 113
-130 67z m106 -35 c17 -40 7 -69 -26 -80 -30 -9 -55 2 -68 31 -25 54 -9 84 46
84 28 0 35 -5 48 -35z"/>
<path d="M2590 7717 c-49 -26 -90 -90 -90 -139 0 -43 23 -91 59 -121 26 -22
43 -27 84 -27 100 0 163 72 155 176 -5 61 -31 97 -85 120 -45 20 -73 17 -123
-9z m155 -30 c55 -47 40 -146 -28 -187 -39 -24 -114 -26 -144 -5 -48 34 -54
132 -10 173 50 47 139 57 182 19z"/>
<path d="M2944 7531 c-89 -38 -83 -181 9 -224 46 -22 75 -21 115 3 70 43 76
133 13 194 -32 31 -98 43 -137 27z m137 -50 c19 -15 23 -28 23 -71 0 -45 -4
-56 -28 -76 -48 -42 -128 -22 -139 34 -8 41 9 98 36 117 29 21 80 19 108 -4z"/>
<path d="M3274 7440 c-62 -25 -86 -129 -43 -184 42 -53 104 -69 159 -41 42 22
60 53 60 106 0 91 -92 153 -176 119z m103 -36 c22 -22 25 -32 20 -72 -7 -64
-44 -96 -101 -89 -50 7 -66 28 -66 88 0 65 28 99 81 99 30 0 47 -7 66 -26z"/>
<path d="M2646 7269 c-54 -42 -19 -129 52 -129 78 0 101 100 31 135 -37 20
-51 19 -83 -6z m90 -30 c20 -40 7 -75 -32 -85 -22 -6 -32 -2 -51 20 -42 49
-26 96 34 96 26 0 36 -6 49 -31z"/>
<path d="M3044 7189 c-94 -27 -117 -156 -41 -226 65 -59 155 -50 197 19 63
104 -39 240 -156 207z m135 -75 c25 -32 26 -60 5 -114 -24 -60 -73 -77 -133
-45 -60 30 -62 119 -4 165 39 31 106 27 132 -6z"/>
<path d="M3311 7104 c-25 -32 -26 -52 -5 -82 36 -52 111 -48 134 8 32 76 -78
139 -129 74z m89 -4 c22 -22 27 -69 8 -88 -17 -17 -58 -15 -80 5 -20 18 -24
73 -6 91 18 18 56 14 78 -8z"/>
<path d="M2749 6990 c-29 -17 -43 -66 -29 -99 22 -55 103 -62 129 -12 37 68
-36 149 -100 111z m75 -19 c39 -43 -14 -128 -63 -102 -34 19 -44 47 -27 80 23
44 61 54 90 22z"/>
<path d="M3245 6825 c-48 -47 -16 -125 52 -125 34 0 73 42 73 80 0 65 -77 93
-125 45z m79 -5 c21 -8 26 -16 26 -43 0 -42 -15 -57 -60 -57 -20 0 -41 5 -48
12 -18 18 -14 56 8 78 22 22 37 24 74 10z"/>
<path d="M2934 6766 c-47 -47 -46 -86 1 -133 32 -32 39 -35 78 -30 89 12 128
108 68 168 -43 43 -101 41 -147 -5z m139 -14 c33 -31 35 -67 5 -99 -29 -31
-72 -30 -103 2 -31 30 -32 73 -4 109 26 33 59 29 102 -12z"/>
<path d="M3140 6507 c-13 -7 -35 -28 -48 -47 -19 -29 -23 -44 -19 -84 4 -41
11 -55 41 -83 29 -27 44 -33 81 -33 37 0 52 6 81 33 108 99 -6 280 -136 214z
m94 -8 c66 -30 72 -125 10 -178 -46 -41 -77 -40 -120 3 -52 52 -40 125 29 166
37 23 47 24 81 9z"/>
<path d="M2995 4268 c-87 -370 -144 -722 -177 -1098 -16 -186 -16 -798 0 -995
36 -428 131 -1055 222 -1460 21 -98 21 -93 -10 178 -98 844 -103 2098 -15
3286 8 107 13 197 11 199 -2 2 -16 -48 -31 -110z"/>
<path d="M3150 4313 c0 -11 7 -110 15 -219 17 -240 40 -624 57 -989 17 -362
17 -1630 0 -1905 -13 -216 -39 -511 -49 -570 -3 -19 -3 -33 0 -29 9 8 63 364
91 599 50 422 66 695 66 1146 0 588 -37 1066 -136 1739 -33 222 -44 280 -44
228z"/>
<path d="M2558 933 c6 -2 18 -2 25 0 6 3 1 5 -13 5 -14 0 -19 -2 -12 -5z"/>
<path d="M2285 886 c-656 -135 -979 -280 -926 -417 38 -100 279 -201 700 -295
1009 -224 1872 -230 2482 -18 205 71 419 200 482 290 26 37 28 44 18 80 -16
60 -62 107 -148 152 -235 121 -670 194 -1327 222 -235 10 -296 8 -199 -5 474
-64 1298 -223 1365 -262 17 -10 40 -30 51 -45 31 -41 11 -96 -61 -167 -155
-154 -499 -282 -863 -322 -142 -16 -540 -6 -809 20 -890 87 -1416 265 -1337
453 45 106 268 212 662 313 217 55 179 56 -90 1z"/>
</g>
</svg>
